<svg width="44" height="44" viewBox="0 0 44 44" fill="none" xmlns="http://www.w3.org/2000/svg">
<path d="M11.1177 8.53125H17.5828V35.4699H11.1177V8.53125ZM19.2178 8.53125H25.6829V35.4699H19.2178V8.53125Z" fill="#EDEDFC"/>
<path d="M4.34863 8.53132H17.581V14.9965H4.34863V8.53132ZM39.6505 17.8411C39.6505 22.9828 35.4821 27.1512 30.3404 27.1512C25.1987 27.1512 21.0303 22.9831 21.0303 17.8411C21.0303 12.6994 25.1987 8.53101 30.3404 8.53101C35.4821 8.53101 39.6505 12.6994 39.6505 17.8411ZM26.9015 17.8411C26.9015 19.7403 28.4415 21.28 30.3404 21.28C32.2396 21.28 33.779 19.7403 33.779 17.8411C33.779 15.9422 32.2396 14.4025 30.3404 14.4025C28.4411 14.4025 26.9015 15.9422 26.9015 17.8411Z" fill="#EDEDFC"/>
</svg>
