<svg width="108" height="20" viewBox="0 0 108 20" fill="none" xmlns="http://www.w3.org/2000/svg">
<path d="M5.076 19.5V4.548H0V1.668H13.932V4.548H8.856V19.5H5.076ZM15.8668 19.5V6.144H19.5268V19.5H15.8668ZM17.5108 4.212C16.9188 4.212 16.4188 4.028 16.0108 3.66C15.6028 3.292 15.3988 2.812 15.3988 2.22C15.3988 1.82 15.5068 1.456 15.7228 1.128C15.9468 0.792 16.2348 0.524 16.5868 0.324C16.9468 0.124 17.3308 0.0240002 17.7388 0.0240002C18.3948 0.0240002 18.9068 0.212 19.2748 0.588C19.6508 0.956 19.8388 1.432 19.8388 2.016C19.8388 2.624 19.6068 3.144 19.1428 3.576C18.6868 4 18.1428 4.212 17.5108 4.212ZM22.8617 19.5V6.144H26.1857L26.2457 7.644C26.5497 7.388 26.9377 7.132 27.4097 6.876C27.8817 6.612 28.4017 6.392 28.9697 6.216C29.5457 6.04 30.1257 5.948 30.7097 5.94C32.1017 5.908 33.1257 6.28 33.7817 7.056C34.4377 7.824 34.7657 9.176 34.7657 11.112V19.5H31.0937V11.628C31.0937 10.588 30.9577 9.86 30.6857 9.444C30.4137 9.028 29.8817 8.836 29.0897 8.868C28.8497 8.876 28.5777 8.92 28.2737 9C27.9777 9.072 27.6737 9.184 27.3617 9.336C27.0577 9.48 26.7737 9.66 26.5097 9.876V19.5H22.8617ZM50.1139 6.132L41.2099 15.588L41.3779 14.808L41.4259 17.124V19.5H37.8379V11.556V0.0360003H41.4259V8.616L41.2819 12.672L40.7179 12.132L45.9019 6.132H50.1139ZM42.6139 13.488L45.0379 11.004L50.5339 19.5H46.4419L42.6139 13.488ZM57.06 19.692C55.004 19.692 53.428 19.08 52.332 17.856C51.2358 16.632 50.6878 14.94 50.6878 12.78C50.6878 11.484 50.9358 10.324 51.4318 9.3C51.936 8.276 52.664 7.468 53.616 6.876C54.568 6.276 55.732 5.972 57.108 5.964C57.804 5.956 58.468 6.044 59.1 6.228C59.732 6.412 60.296 6.712 60.792 7.128C61.288 7.536 61.684 8.08 61.98 8.76C62.284 9.432 62.44 10.256 62.448 11.232C62.448 11.72 62.44 12.172 62.424 12.588C62.408 13.004 62.372 13.36 62.316 13.656H52.656L52.896 11.676H59.04C59.08 11.028 59.044 10.46 58.932 9.972C58.828 9.476 58.62 9.092 58.308 8.82C57.996 8.54 57.556 8.4 56.988 8.4C56.436 8.4 55.952 8.552 55.536 8.856C55.128 9.16 54.812 9.684 54.588 10.428C54.372 11.164 54.28 12.18 54.312 13.476C54.344 14.348 54.512 15.048 54.816 15.576C55.128 16.096 55.548 16.472 56.076 16.704C56.612 16.928 57.232 17.04 57.936 17.04C58.32 17.04 58.74 17.008 59.196 16.944C59.652 16.88 60.084 16.796 60.492 16.692C60.9 16.58 61.212 16.468 61.428 16.356L62.04 18.348C61.744 18.588 61.336 18.812 60.816 19.02C60.304 19.22 59.72 19.38 59.064 19.5C58.416 19.628 57.748 19.692 57.06 19.692ZM68.186 10.788L68.018 8.22C68.162 7.836 68.426 7.472 68.81 7.128C69.194 6.776 69.65 6.492 70.178 6.276C70.706 6.052 71.262 5.94 71.846 5.94C72.086 5.94 72.306 5.952 72.506 5.976C72.714 6 72.866 6.04 72.962 6.096V9.66C72.85 9.588 72.678 9.516 72.446 9.444C72.214 9.372 71.862 9.336 71.39 9.336C70.814 9.336 70.318 9.42 69.902 9.588C69.486 9.748 69.134 9.944 68.846 10.176C68.566 10.4 68.346 10.604 68.186 10.788ZM64.742 19.5V6.144H67.91L68.114 8.232L68.402 8.868V19.5H64.742ZM75.074 19.5V1.668H76.598C77.382 1.668 78.162 1.636 78.938 1.572C79.714 1.508 80.526 1.476 81.374 1.476C82.75 1.476 83.93 1.68 84.914 2.088C85.898 2.488 86.654 3.136 87.182 4.032C87.718 4.928 87.986 6.108 87.986 7.572C87.986 9.612 87.374 11.192 86.15 12.312C84.934 13.432 83.17 13.992 80.858 13.992C80.354 13.992 79.942 13.988 79.622 13.98C79.31 13.972 79.05 13.968 78.842 13.968V19.5H75.074ZM78.842 11.16C79.146 11.2 79.458 11.228 79.778 11.244C80.106 11.26 80.442 11.268 80.786 11.268C81.426 11.268 82.01 11.16 82.538 10.944C83.074 10.728 83.498 10.352 83.81 9.816C84.13 9.28 84.29 8.528 84.29 7.56C84.29 6.424 83.994 5.556 83.402 4.956C82.81 4.356 81.918 4.076 80.726 4.116C80.422 4.124 80.102 4.14 79.766 4.164C79.43 4.188 79.122 4.228 78.842 4.284V11.16ZM93.081 19.692C92.233 19.692 91.489 19.52 90.849 19.176C90.209 18.832 89.709 18.352 89.349 17.736C88.997 17.12 88.821 16.404 88.821 15.588C88.821 14.772 89.041 14.072 89.481 13.488C89.929 12.904 90.533 12.448 91.293 12.12C91.813 11.904 92.381 11.736 92.997 11.616C93.621 11.496 94.241 11.412 94.857 11.364C95.481 11.316 96.061 11.292 96.597 11.292L97.209 12.048L96.597 13.224C96.309 13.224 95.985 13.244 95.625 13.284C95.265 13.324 94.917 13.384 94.581 13.464C94.253 13.536 93.977 13.62 93.753 13.716C93.441 13.86 93.161 14.052 92.913 14.292C92.673 14.532 92.553 14.9 92.553 15.396C92.553 16.044 92.733 16.524 93.093 16.836C93.453 17.14 93.917 17.292 94.485 17.292C94.781 17.292 95.073 17.252 95.361 17.172C95.657 17.092 95.917 17 96.141 16.896C96.365 16.784 96.517 16.68 96.597 16.584L97.233 17.34L96.789 18.372C96.429 18.692 95.933 18.992 95.301 19.272C94.677 19.552 93.937 19.692 93.081 19.692ZM100.257 19.5H96.789V17.508H96.597V10.308C96.597 9.628 96.417 9.184 96.057 8.976C95.697 8.76 95.181 8.652 94.509 8.652C94.005 8.652 93.477 8.696 92.925 8.784C92.381 8.872 91.865 8.988 91.377 9.132C90.889 9.276 90.481 9.432 90.153 9.6L89.361 7.296C89.633 7.136 90.057 6.948 90.633 6.732C91.209 6.516 91.869 6.328 92.613 6.168C93.357 6 94.105 5.916 94.857 5.916C96.089 5.916 97.101 6.06 97.893 6.348C98.693 6.636 99.285 7.124 99.669 7.812C100.061 8.5 100.257 9.452 100.257 10.668V19.5ZM103.348 19.5V0H107.02V19.5H103.348Z" fill="#4A4EDD"/>
</svg>
